<?xml version="1.0" encoding="UTF-8"?>
<svg width="700pt" height="700pt" version="1.1" viewBox="0 0 700 700" xmlns="http://www.w3.org/2000/svg" xmlns:xlink="http://www.w3.org/1999/xlink">
 <defs>
  <symbol id="t" overflow="visible">
   <path d="m6.5156-0.39062c-0.34375 0.17969-0.69922 0.30859-1.0625 0.39062-0.35547 0.09375-0.73047 0.14062-1.125 0.14062-1.1875 0-2.125-0.32812-2.8125-0.98438-0.6875-0.66406-1.0312-1.5625-1.0312-2.6875 0-1.1328 0.34375-2.0312 1.0312-2.6875 0.6875-0.66406 1.625-1 2.8125-1 0.39453 0 0.76953 0.046875 1.125 0.14062 0.36328 0.085937 0.71875 0.21484 1.0625 0.39062v1.4688c-0.34375-0.22656-0.68359-0.39453-1.0156-0.5-0.32422-0.11328-0.66797-0.17188-1.0312-0.17188-0.64844 0-1.1562 0.21094-1.5312 0.625-0.375 0.41797-0.5625 0.99609-0.5625 1.7344 0 0.73047 0.1875 1.3047 0.5625 1.7188 0.375 0.41797 0.88281 0.625 1.5312 0.625 0.36328 0 0.70703-0.050781 1.0312-0.15625 0.33203-0.11328 0.67188-0.28516 1.0156-0.51562z"/>
  </symbol>
  <symbol id="c" overflow="visible">
   <path d="m4.7656-3.875c-0.14844-0.0625-0.29688-0.10938-0.45312-0.14062-0.14844-0.039063-0.29297-0.0625-0.4375-0.0625-0.4375 0-0.77734 0.14062-1.0156 0.42188-0.23047 0.28125-0.34375 0.68359-0.34375 1.2031v2.4531h-1.7031v-5.3125h1.7031v0.875c0.21875-0.35156 0.46875-0.60938 0.75-0.76562s0.61719-0.23438 1.0156-0.23438c0.0625 0 0.125 0.007812 0.1875 0.015625 0.0625 0 0.16016 0.007813 0.29688 0.015625z"/>
  </symbol>
  <symbol id="b" overflow="visible">
   <path d="m6.125-2.6719v0.48438h-3.9688c0.039062 0.39844 0.17969 0.69922 0.42188 0.90625 0.25 0.19922 0.59375 0.29688 1.0312 0.29688 0.36328 0 0.73438-0.050781 1.1094-0.15625 0.375-0.11328 0.75781-0.27344 1.1562-0.48438v1.2969c-0.40625 0.15625-0.8125 0.27344-1.2188 0.34375-0.39844 0.082031-0.79688 0.125-1.2031 0.125-0.96094 0-1.7031-0.24219-2.2344-0.73438-0.53125-0.48828-0.79688-1.1758-0.79688-2.0625 0-0.86328 0.25781-1.5391 0.78125-2.0312 0.51953-0.5 1.2383-0.75 2.1562-0.75 0.84375 0 1.5156 0.25 2.0156 0.75s0.75 1.1719 0.75 2.0156zm-1.75-0.5625c0-0.32031-0.09375-0.58203-0.28125-0.78125-0.1875-0.19531-0.43359-0.29688-0.73438-0.29688-0.33594 0-0.60547 0.09375-0.8125 0.28125-0.19922 0.17969-0.32422 0.44531-0.375 0.79688z"/>
  </symbol>
  <symbol id="a" overflow="visible">
   <path d="m3.2031-2.3906c-0.35547 0-0.625 0.0625-0.8125 0.1875-0.17969 0.11719-0.26562 0.28906-0.26562 0.51562 0 0.21875 0.070312 0.39062 0.21875 0.51562 0.14453 0.125 0.34766 0.1875 0.60938 0.1875 0.3125 0 0.57812-0.11328 0.79688-0.34375 0.21875-0.23828 0.32812-0.53125 0.32812-0.875v-0.1875zm2.5938-0.64062v3.0312h-1.7188v-0.78125c-0.23047 0.32422-0.48438 0.55859-0.76562 0.70312-0.28125 0.14453-0.63281 0.21875-1.0469 0.21875-0.54297 0-0.98438-0.16016-1.3281-0.48438-0.34375-0.32031-0.51562-0.73828-0.51562-1.25 0-0.625 0.21094-1.082 0.64062-1.375 0.42578-0.28906 1.0977-0.4375 2.0156-0.4375h1v-0.125c0-0.26953-0.10938-0.46875-0.32812-0.59375-0.21094-0.125-0.53906-0.1875-0.98438-0.1875-0.36719 0-0.70312 0.039062-1.0156 0.10938-0.3125 0.074219-0.60547 0.18359-0.875 0.32812v-1.2969c0.36328-0.09375 0.72656-0.16016 1.0938-0.20312 0.375-0.039062 0.74219-0.0625 1.1094-0.0625 0.95703 0 1.6484 0.1875 2.0781 0.5625 0.42578 0.375 0.64062 0.99219 0.64062 1.8438z"/>
  </symbol>
  <symbol id="f" overflow="visible">
   <path d="m2.6719-6.8281v1.5156h1.75v1.2188h-1.75v2.25c0 0.25 0.046875 0.41797 0.14062 0.5 0.10156 0.085938 0.30078 0.125 0.59375 0.125h0.875v1.2188h-1.4688c-0.66797 0-1.1406-0.14062-1.4219-0.42188s-0.42188-0.75391-0.42188-1.4219v-2.25h-0.84375v-1.2188h0.84375v-1.5156z"/>
  </symbol>
  <symbol id="l" overflow="visible">
   <path d="m4.4375-4.5312v-2.8594h1.7031v7.3906h-1.7031v-0.76562c-0.24219 0.3125-0.5 0.54297-0.78125 0.6875-0.28125 0.14453-0.60547 0.21875-0.96875 0.21875-0.65625 0-1.1992-0.25781-1.625-0.78125-0.41797-0.51953-0.625-1.1914-0.625-2.0156 0-0.8125 0.20703-1.4766 0.625-2 0.42578-0.51953 0.96875-0.78125 1.625-0.78125 0.36328 0 0.6875 0.074219 0.96875 0.21875 0.28125 0.14844 0.53906 0.375 0.78125 0.6875zm-1.125 3.4375c0.36328 0 0.64062-0.12891 0.82812-0.39062 0.19531-0.26953 0.29688-0.66016 0.29688-1.1719 0-0.5-0.10156-0.87891-0.29688-1.1406-0.1875-0.26953-0.46484-0.40625-0.82812-0.40625-0.36719 0-0.64062 0.13672-0.82812 0.40625-0.1875 0.26172-0.28125 0.64062-0.28125 1.1406 0 0.51172 0.09375 0.90234 0.28125 1.1719 0.1875 0.26172 0.46094 0.39062 0.82812 0.39062z"/>
  </symbol>
  <symbol id="e" overflow="visible">
   <path d="m3.6406-1.0938c0.36328 0 0.64062-0.12891 0.82812-0.39062 0.19531-0.26953 0.29688-0.66016 0.29688-1.1719 0-0.5-0.10156-0.87891-0.29688-1.1406-0.1875-0.26953-0.46484-0.40625-0.82812-0.40625-0.36719 0-0.64844 0.13672-0.84375 0.40625-0.1875 0.26172-0.28125 0.64062-0.28125 1.1406 0 0.51172 0.09375 0.90234 0.28125 1.1719 0.19531 0.26172 0.47656 0.39062 0.84375 0.39062zm-1.125-3.4375c0.22656-0.3125 0.48438-0.53906 0.76562-0.6875 0.28906-0.14453 0.625-0.21875 1-0.21875 0.65625 0 1.1914 0.26172 1.6094 0.78125 0.41406 0.52344 0.625 1.1875 0.625 2 0 0.82422-0.21094 1.4961-0.625 2.0156-0.41797 0.52344-0.95312 0.78125-1.6094 0.78125-0.375 0-0.71094-0.074219-1-0.21875-0.28125-0.14453-0.53906-0.375-0.76562-0.6875v0.76562h-1.7031v-7.3906h1.7031z"/>
  </symbol>
  <symbol id="k" overflow="visible">
   <path d="m0.125-5.3125h1.6875l1.4375 3.6094 1.2031-3.6094h1.7031l-2.2344 5.8125c-0.21875 0.59375-0.48047 1.0039-0.78125 1.2344-0.30469 0.23828-0.69922 0.35938-1.1875 0.35938h-0.98438v-1.1094h0.53125c0.28906 0 0.5-0.046875 0.625-0.14062 0.13281-0.09375 0.23828-0.26172 0.3125-0.5l0.046875-0.14062z"/>
  </symbol>
  <symbol id="g" overflow="visible">
   <path d="m0.89062-7.0781h2.3281l1.6094 3.7812 1.625-3.7812h2.3281v7.0781h-1.7344v-5.1875l-1.625 3.8281h-1.1719l-1.625-3.8281v5.1875h-1.7344z"/>
  </symbol>
  <symbol id="d" overflow="visible">
   <path d="m3.3438-4.2344c-0.375 0-0.66406 0.13672-0.85938 0.40625-0.19922 0.27344-0.29688 0.66406-0.29688 1.1719 0 0.51172 0.097656 0.90234 0.29688 1.1719 0.19531 0.27344 0.48438 0.40625 0.85938 0.40625s0.65625-0.13281 0.84375-0.40625c0.19531-0.26953 0.29688-0.66016 0.29688-1.1719 0-0.50781-0.10156-0.89844-0.29688-1.1719-0.1875-0.26953-0.46875-0.40625-0.84375-0.40625zm0-1.2031c0.91406 0 1.6289 0.24609 2.1406 0.73438 0.51953 0.49219 0.78125 1.1719 0.78125 2.0469s-0.26172 1.5625-0.78125 2.0625c-0.51172 0.49219-1.2266 0.73438-2.1406 0.73438-0.91797 0-1.6367-0.24219-2.1562-0.73438-0.51172-0.5-0.76562-1.1875-0.76562-2.0625s0.25391-1.5547 0.76562-2.0469c0.51953-0.48828 1.2383-0.73438 2.1562-0.73438z"/>
  </symbol>
  <symbol id="j" overflow="visible">
   <path d="m6.1562-3.2344v3.2344h-1.7031v-2.4688c0-0.46875-0.011719-0.78516-0.03125-0.95312-0.023437-0.17578-0.058594-0.30469-0.10938-0.39062-0.0625-0.11328-0.15234-0.19531-0.26562-0.25-0.11719-0.0625-0.24609-0.09375-0.39062-0.09375-0.35547 0-0.63672 0.13672-0.84375 0.40625-0.19922 0.27344-0.29688 0.65234-0.29688 1.1406v2.6094h-1.7031v-7.3906h1.7031v2.8594c0.25781-0.3125 0.53125-0.53906 0.8125-0.6875 0.28906-0.14453 0.60938-0.21875 0.95312-0.21875 0.61328 0 1.0781 0.1875 1.3906 0.5625 0.32031 0.375 0.48438 0.92188 0.48438 1.6406z"/>
  </symbol>
  <symbol id="i" overflow="visible">
   <path d="m6.1562-3.2344v3.2344h-1.7031v-2.4844c0-0.45703-0.011719-0.76953-0.03125-0.9375-0.023437-0.17578-0.058594-0.30469-0.10938-0.39062-0.0625-0.11328-0.15234-0.19531-0.26562-0.25-0.11719-0.0625-0.24609-0.09375-0.39062-0.09375-0.35547 0-0.63672 0.13672-0.84375 0.40625-0.19922 0.27344-0.29688 0.65234-0.29688 1.1406v2.6094h-1.7031v-5.3125h1.7031v0.78125c0.25781-0.3125 0.53125-0.53906 0.8125-0.6875 0.28906-0.14453 0.60938-0.21875 0.95312-0.21875 0.61328 0 1.0781 0.1875 1.3906 0.5625 0.32031 0.375 0.48438 0.92188 0.48438 1.6406z"/>
  </symbol>
  <symbol id="h" overflow="visible">
   <path d="m0.76562-2.0625v-3.25h1.7031v0.53125c0 0.28125-0.007812 0.64062-0.015625 1.0781v0.875c0 0.42969 0.007813 0.73438 0.03125 0.92188 0.03125 0.1875 0.070313 0.32422 0.125 0.40625 0.0625 0.11719 0.14844 0.20312 0.26562 0.26562 0.11328 0.0625 0.24219 0.09375 0.39062 0.09375 0.35156 0 0.62891-0.13281 0.82812-0.40625 0.20703-0.28125 0.3125-0.66016 0.3125-1.1406v-2.625h1.7031v5.3125h-1.7031v-0.76562c-0.26172 0.3125-0.53906 0.54297-0.82812 0.6875-0.28125 0.14453-0.59375 0.21875-0.9375 0.21875-0.61719 0-1.0859-0.1875-1.4062-0.5625-0.3125-0.375-0.46875-0.92188-0.46875-1.6406z"/>
  </symbol>
  <symbol id="s" overflow="visible">
   <path d="m3.7344-4.3438c0.28125 0 0.49219-0.0625 0.64062-0.1875 0.15625-0.125 0.23438-0.3125 0.23438-0.5625 0-0.23828-0.078125-0.42188-0.23438-0.54688-0.14844-0.13281-0.35938-0.20312-0.64062-0.20312h-1.0156v1.5zm0.0625 3.0938c0.36328 0 0.63281-0.070312 0.8125-0.21875 0.1875-0.15625 0.28125-0.39062 0.28125-0.70312s-0.09375-0.53906-0.28125-0.6875c-0.17969-0.15625-0.44922-0.23438-0.8125-0.23438h-1.0781v1.8438zm1.6875-2.5469c0.39453 0.11719 0.69531 0.32812 0.90625 0.64062 0.21875 0.30469 0.32812 0.67969 0.32812 1.125 0 0.6875-0.23047 1.1992-0.6875 1.5312-0.46094 0.33594-1.1641 0.5-2.1094 0.5h-3.0312v-7.0781h2.75c0.97656 0 1.6875 0.15234 2.125 0.45312 0.44531 0.29297 0.67188 0.76562 0.67188 1.4219 0 0.34375-0.085938 0.63672-0.25 0.875-0.15625 0.24219-0.39062 0.41797-0.70312 0.53125z"/>
  </symbol>
  <symbol id="r" overflow="visible">
   <path d="m4.3125-7.3906v1.125h-0.9375c-0.24219 0-0.40625 0.046875-0.5 0.14062-0.09375 0.085938-0.14062 0.23047-0.14062 0.4375v0.375h1.4531v1.2188h-1.4531v4.0938h-1.7031v-4.0938h-0.84375v-1.2188h0.84375v-0.375c0-0.57031 0.16016-1 0.48438-1.2812 0.32031-0.28125 0.82031-0.42188 1.5-0.42188z"/>
  </symbol>
  <symbol id="q" overflow="visible">
   <path d="m5.7344-4.4375c0.21875-0.32031 0.47266-0.56641 0.76562-0.73438 0.30078-0.17578 0.62891-0.26562 0.98438-0.26562 0.61328 0 1.0781 0.1875 1.3906 0.5625 0.32031 0.375 0.48438 0.92188 0.48438 1.6406v3.2344h-1.7031v-2.7656-0.125-0.20312c0-0.375-0.058594-0.64453-0.17188-0.8125-0.10547-0.16406-0.28125-0.25-0.53125-0.25-0.32422 0-0.57422 0.13672-0.75 0.40625-0.16797 0.26172-0.25781 0.64062-0.26562 1.1406v2.6094h-1.7031v-2.7656c0-0.59375-0.054687-0.97266-0.15625-1.1406-0.10547-0.16406-0.28906-0.25-0.54688-0.25-0.32422 0-0.57422 0.13672-0.75 0.40625-0.17969 0.26172-0.26562 0.64062-0.26562 1.1406v2.6094h-1.7031v-5.3125h1.7031v0.78125c0.20703-0.30078 0.44531-0.52344 0.71875-0.67188 0.26953-0.15625 0.56641-0.23438 0.89062-0.23438 0.36328 0 0.6875 0.089844 0.96875 0.26562 0.28906 0.17969 0.50391 0.42188 0.64062 0.73438z"/>
  </symbol>
  <symbol id="p" overflow="visible">
   <path d="m0.89062-7.0781h2.0469l2.5781 4.8594v-4.8594h1.7188v7.0781h-2.0312l-2.5781-4.8594v4.8594h-1.7344z"/>
  </symbol>
  <symbol id="o" overflow="visible">
   <path d="m0.89062-7.0781h3.0312c0.90625 0 1.5977 0.19922 2.0781 0.59375 0.47656 0.39844 0.71875 0.96484 0.71875 1.7031 0 0.75-0.24219 1.3281-0.71875 1.7344-0.48047 0.39844-1.1719 0.59375-2.0781 0.59375h-1.2031v2.4531h-1.8281zm1.8281 1.3125v1.9844h1.0156c0.35156 0 0.625-0.082031 0.8125-0.25 0.19531-0.17578 0.29688-0.42578 0.29688-0.75 0-0.3125-0.10156-0.55078-0.29688-0.71875-0.1875-0.17578-0.46094-0.26562-0.8125-0.26562z"/>
  </symbol>
  <symbol id="n" overflow="visible">
   <path d="m0.8125-5.3125h1.7031v5.2188c0 0.70703-0.17188 1.25-0.51562 1.625s-0.83984 0.5625-1.4844 0.5625h-0.84375v-1.1094h0.29688c0.32031 0 0.53906-0.074219 0.65625-0.21875 0.125-0.14844 0.1875-0.43359 0.1875-0.85938zm0-2.0781h1.7031v1.3906h-1.7031z"/>
  </symbol>
  <symbol id="m" overflow="visible">
   <path d="m5.1094-5.1562v1.3906c-0.23047-0.15625-0.46484-0.26953-0.70312-0.34375-0.23047-0.082031-0.46875-0.125-0.71875-0.125-0.46875 0-0.83984 0.14062-1.1094 0.42188-0.26172 0.28125-0.39062 0.66797-0.39062 1.1562 0 0.5 0.12891 0.89062 0.39062 1.1719 0.26953 0.27344 0.64062 0.40625 1.1094 0.40625 0.26953 0 0.52344-0.035156 0.76562-0.10938 0.23828-0.082031 0.45703-0.20312 0.65625-0.35938v1.3906c-0.26172 0.09375-0.53125 0.16406-0.8125 0.21875-0.27344 0.050781-0.54297 0.078125-0.8125 0.078125-0.96094 0-1.7109-0.24219-2.25-0.73438-0.54297-0.5-0.8125-1.1875-0.8125-2.0625s0.26953-1.5547 0.8125-2.0469c0.53906-0.48828 1.2891-0.73438 2.25-0.73438 0.26953 0 0.53906 0.027344 0.8125 0.078125 0.26953 0.042969 0.53906 0.10938 0.8125 0.20312z"/>
  </symbol>
 </defs>
 <g>
  <path d="m491.95 291-21.391 11.043-58.762 89.719-74.531-20.828-27.398 14.117-48.961-35.484-59.891-16.801-1.9062 1.7695-1.5938 1.9648-1.3984 2.1406-1.168 2.3125-0.85547 2.3906-0.62109 2.4883-0.29297 2.5078v2.5664l0.29297 2.5664 0.5625 2.4492 0.85547 2.4297 1.168 2.2539 1.3398 2.1406 1.6523 2.0234 1.8477 1.7695 2.0234 1.5352 2.1953 1.2852 206.68 64.789zm-321.03-25.781 0.79688 3.1289 1.0508 2.9766 1.3398 2.8789 1.5938 2.7422 1.8477 2.5664 2.082 2.3906 130.24 89.402 123.53-62.59v-0.019531l96.504-48.902 7.582 3.0547v4.6484l-33.582 17.344-88.199 159.58-212.47-67.727-2.6445-1.418-2.4492-1.5742-2.2734-1.8477-2.1406-2.0039-1.8477-2.2734-1.7109-2.4297-1.3984-2.5664-1.168-2.6836-0.93359-2.7617-0.60156-2.8594-0.3125-2.9375-0.058594-2.9375 0.17578-2.918 0.5625-2.875 0.79688-2.8203 1.0312-2.7422 1.3047-2.625 1.5938-2.4492 1.8281-2.3125 2.0234-2.1406 2.2148-1.9453 14.523-11.668-33.891-24.617-2.3906-2.4531-2.1602-2.6836-1.8867-2.875-1.7305-2.9766-1.3984-3.1289-1.168-3.2266-0.85547-3.3047-0.67969-3.4219-0.3125-3.3984-0.058594-3.4219 0.25391-3.4219 0.48438-3.4219 0.77734-3.2266 4.7461 1.1484-0.67969 3.1094-0.42969 3.1875-0.11719 3.168 0.17578 3.168z"/>
  <path d="m537.48 214.67v8.7891l-74.219 31.887-32.414 48.359-53.57-11.473-69.379 29.789-113.81-69.066-7.1758-1.5156-2.8164-3.0742-2.5664-3.2266 5.3828-1.7109 237.87 45.754 79.059-109.26h6.0078v5.9141l-9.9336 14.719z"/>
  <path d="m177.06 238.18-1.7891 2.625-1.5391 2.7422-1.2812 2.9336-0.97266 2.9961-4.7461-1.1484 0.019531-0.078125 1.0508-3.2852 1.3438-3.1875 1.5938-3.0547 1.8281-2.8594 2.0977-2.7578-1.5938-4.0273-1.2227-4.1602-0.93359-4.1992-0.60547-4.2773-0.25-4.3359v-4.2812l0.36719-4.3359 0.67969-4.2773 0.97266-4.2188 1.3047-4.082 1.5742-4.0273 163.16-68.113 177.91 13.203v6.3594l-85.184 93.742-249.45-39.824-1.2852 3.9102-1.0312 3.9648-0.73828 4.0469-0.42578 4.082-0.13672 4.082 0.13672 4.1055 0.48438 4.082 0.73828 4.043 0.97266 3.9688 1.2852 3.9062 1.5938 3.7734 1.8477 3.6758 2.0781 3.5391-5.3828 1.7109-2.3359-3.4219z"/>
  <use x="70" y="589.167969" xlink:href="#t"/>
  <use x="77.136719" y="589.167969" xlink:href="#c"/>
  <use x="81.929688" y="589.167969" xlink:href="#b"/>
  <use x="88.523438" y="589.167969" xlink:href="#a"/>
  <use x="95.085938" y="589.167969" xlink:href="#f"/>
  <use x="99.730469" y="589.167969" xlink:href="#b"/>
  <use x="106.324219" y="589.167969" xlink:href="#l"/>
  <use x="116.667969" y="589.167969" xlink:href="#e"/>
  <use x="123.628906" y="589.167969" xlink:href="#k"/>
  <use x="133.351562" y="589.167969" xlink:href="#g"/>
  <use x="143.027344" y="589.167969" xlink:href="#d"/>
  <use x="149.707031" y="589.167969" xlink:href="#j"/>
  <use x="156.625" y="589.167969" xlink:href="#a"/>
  <use x="163.1875" y="589.167969" xlink:href="#i"/>
  <use x="170.109375" y="589.167969" xlink:href="#a"/>
  <use x="176.667969" y="589.167969" xlink:href="#e"/>
  <use x="183.628906" y="589.167969" xlink:href="#c"/>
  <use x="188.421875" y="589.167969" xlink:href="#a"/>
  <use x="194.984375" y="589.167969" xlink:href="#e"/>
  <use x="201.941406" y="589.167969" xlink:href="#h"/>
  <use x="212.25" y="589.167969" xlink:href="#s"/>
  <use x="219.660156" y="589.167969" xlink:href="#g"/>
  <use x="70" y="598.890625" xlink:href="#r"/>
  <use x="74.230469" y="598.890625" xlink:href="#c"/>
  <use x="79.023438" y="598.890625" xlink:href="#d"/>
  <use x="85.703125" y="598.890625" xlink:href="#q"/>
  <use x="99.21875" y="598.890625" xlink:href="#f"/>
  <use x="103.867188" y="598.890625" xlink:href="#j"/>
  <use x="110.789062" y="598.890625" xlink:href="#b"/>
  <use x="120.765625" y="598.890625" xlink:href="#p"/>
  <use x="128.902344" y="598.890625" xlink:href="#d"/>
  <use x="135.582031" y="598.890625" xlink:href="#h"/>
  <use x="142.503906" y="598.890625" xlink:href="#i"/>
  <use x="152.808594" y="598.890625" xlink:href="#o"/>
  <use x="159.933594" y="598.890625" xlink:href="#c"/>
  <use x="164.730469" y="598.890625" xlink:href="#d"/>
  <use x="171.410156" y="598.890625" xlink:href="#n"/>
  <use x="174.742188" y="598.890625" xlink:href="#b"/>
  <use x="181.335938" y="598.890625" xlink:href="#m"/>
  <use x="187.097656" y="598.890625" xlink:href="#f"/>
 </g>
</svg>
